<svg xmlns="http://www.w3.org/2000/svg" viewBox="0 0 3728 851.35"><defs><style>.cls-1{fill:#cbcbcb;}.cls-2{fill:#cdd0d8;}.cls-3{fill:#b9babc;}.cls-4{fill:#ccc;}.cls-5{fill:#f7941e;}.cls-6{fill:#f7931a;}.cls-7{fill:#fcfcfc;}.cls-8{fill:#fff;}.cls-9{fill:#e6e6e6;}</style></defs><title>Moon</title><g id="Layer_2" data-name="Layer 2"><rect class="cls-1" x="3728" y="770.85" height="17"/><path class="cls-2" d="M2879,437.2c-155.87-69-354.11-126.79-581.89-169.12l1-.52c4.28-3.35-5.44-35.78-22.61-38.21l-267-29c-17.17-2.43-51.76,14.37-56,17.72l-.17.44c-177.11-18.62-365.67-28.66-561.29-28.66-329.89,0-639.72,28.56-908.35,78.65-10.58-2.09-26.53-3.77-34.53-2.09l-176.3,37c-9.72,2-14,9.91-11.81,13.88-94.19,24-181.27,51-260,80.45V851.35H2879Z"/></g><g id="Flag"><ellipse class="cls-2" cx="508.84" cy="468.19" rx="81.85" ry="23.16" transform="translate(-21.21 24.16) rotate(-2.66)"/><ellipse class="cls-2" cx="1125.65" cy="755.98" rx="28.45" ry="110.49" transform="translate(347.25 1866.25) rotate(-88.85)"/><ellipse class="cls-2" cx="1613.78" cy="316.86" rx="46.15" ry="17.99" transform="translate(-3.15 16.51) rotate(-0.59)"/><path class="cls-3" d="M1143.51,577.66a20.48,20.48,0,0,1-2.84,12.13c-8.27,15.23-33.92,27.82-65.1,30.57-34.52,3-64.39-7.06-72.28-23.31a19,19,0,0,1-2-7c-1.71-20.17,28.66-39.29,67.94-42.69S1141.73,557.42,1143.51,577.66Z"/><path class="cls-4" d="M1140.74,589.72c-8.27,15.23-33.92,27.82-65.1,30.57-34.52,3-64.39-7.06-72.28-23.31,8.27-15.23,33.92-27.82,65.18-30.63C1103,563.46,1132.78,573.54,1140.74,589.72Z"/><path class="cls-3" d="M554.29,413.61c-.05,6.76-2.48,13.67-6.9,20.59-16.6,26.67-62,52-115.08,62-58.7,10.92-107.32-.46-117.79-26a26.93,26.93,0,0,1-2.1-11.28c.63-33.12,55.17-70.1,122-82.58S554.82,380.38,554.29,413.61Z"/><path class="cls-4" d="M547.53,434.07c-16.6,26.67-62,52-115.08,62-58.7,10.92-107.32-.46-117.79-26,16.6-26.67,62-52,115.21-62.12C488.45,397.15,536.93,408.65,547.53,434.07Z"/><path class="cls-3" d="M1220.23,279.25a21.88,21.88,0,0,1-2.84,13.16c-8.69,16.43-36.3,29.65-70.13,32-37.45,2.53-70.11-9-79-26.85a21.39,21.39,0,0,1-2.29-7.69c-2.26-22,30.36-42.25,73-45.17S1217.89,257.15,1220.23,279.25Z"/><path class="cls-4" d="M1217.47,292.34c-8.69,16.43-36.3,29.65-70.13,32-37.45,2.53-70.11-9-79-26.85,8.69-16.43,36.3-29.65,70.2-32.08C1175.9,263,1208.49,274.54,1217.47,292.34Z"/><path class="cls-2" d="M92.4,353.12c-9-10,11.07-29.34,45-43.31s68.78-17.14,77.78-7.17c18.68,20.68,2.35,44.25-31.55,58.13C149.69,374.82,115.23,378.36,92.4,353.12Z"/><path class="cls-3" d="M106.1,340.73c-2.35-2.61,15.5-12.85,39.86-22.82s46.09-16,48.44-13.41-15.5,12.85-39.86,22.82S108.45,343.34,106.1,340.73Z"/><path class="cls-5" d="M1640.59,529.9a1.5,1.5,0,0,0,0-3,1.5,1.5,0,0,0,0,3Z"/><path class="cls-2" d="M780.75,222.59c-4.49-11.88,11.42-25.74,35.19-30.69s46.8.57,51.29,12.45S855.82,230.09,832,235C808.09,240,785.25,234.47,780.75,222.59Z"/><path class="cls-2" d="M1800.57,196.08c-1.12-14.7,21.13-24.92,49.22-22.66,28.13,2.11,51.92,15.93,53,30.63s-21.13,24.92-49.22,22.66C1825.31,224.39,1801.69,210.78,1800.57,196.08Z"/><path class="cls-2" d="M1359.72,172c2.93-13.82,19.56-23.9,36.8-22.33s29,14,26,27.79-19.56,23.9-36.8,22.33S1356.79,185.79,1359.72,172Z"/><path class="cls-3" d="M2445.78,441.41c-.89,10.77-5.31,20.54-12.68,29.28-27.76,33.93-98,50.7-177.56,39-88.08-13.2-158.56-56.75-170.94-103a51.86,51.86,0,0,1-1.75-19.12c4.93-52.57,90-83.17,190.24-68.23C2373.19,334,2450.57,388.61,2445.78,441.41Z"/><path class="cls-4" d="M2433.31,470.56c-27.76,33.93-98,50.7-177.56,39-88.08-13.2-158.56-56.75-170.94-103,27.76-33.93,98-50.7,177.77-39.08C2350.45,380.74,2420.71,424.42,2433.31,470.56Z"/><path class="cls-3" d="M1808.46,288.48a20.48,20.48,0,0,1-5,11.42c-10.86,13.5-38.35,21.31-69.52,18.43-34.49-3.26-62.09-18.46-66.95-35.86a19,19,0,0,1-.69-7.26c1.92-20.15,35.23-33.53,74.48-29.85S1810.33,268.25,1808.46,288.48Z"/><path class="cls-4" d="M1803.59,299.85c-10.86,13.5-38.35,21.31-69.52,18.43-34.49-3.26-62.09-18.46-66.95-35.86,10.86-13.5,38.35-21.31,69.6-18.48C1771.13,267.26,1798.65,282.51,1803.59,299.85Z"/><path class="cls-3" d="M1669.58,529.75c-.81,7.78-4.21,14.88-9.76,21.29-20.94,24.86-72.89,38-131.35,30.66-64.68-8.24-116-38.61-124.42-71.78a36.27,36.27,0,0,1-1-13.76c4.39-38,67.5-61.26,141.11-51.95C1617.67,453.36,1673.87,491.62,1669.58,529.75Z"/><path class="cls-4" d="M1660,550.94c-20.94,24.86-72.89,38-131.35,30.66-64.68-8.24-116-38.61-124.42-71.78,20.94-24.86,72.89-38,131.51-30.75C1600.24,487.39,1651.36,517.86,1660,550.94Z"/><path class="cls-2" d="M1102.82,180c.69-4.65,7.09-7.51,14.16-6.35s12.29,5.86,11.6,10.5-7.09,7.51-14.16,6.35S1102.13,184.61,1102.82,180Z"/><path class="cls-3" d="M2078.58,576.21a28.48,28.48,0,0,1-3.95,16.86c-11.5,21.17-47.16,38.69-90.52,42.5-48,4.11-89.53-9.81-100.5-32.4a26.45,26.45,0,0,1-2.74-9.76c-2.38-28,39.85-54.63,94.46-59.36S2076.1,548.07,2078.58,576.21Z"/><path class="cls-4" d="M2074.73,593c-11.5,21.17-47.16,38.69-90.52,42.5-48,4.11-89.53-9.81-100.5-32.4,11.5-21.17,47.16-38.69,90.62-42.59C2022.23,556.46,2063.66,570.48,2074.73,593Z"/><path class="cls-3" d="M1369.41,758.39a7.2,7.2,0,0,1-1,4.26c-2.91,5.35-11.93,9.78-22.89,10.75-12.14,1-22.64-2.48-25.42-8.2a6.69,6.69,0,0,1-.69-2.47c-.6-7.09,10.08-13.82,23.89-15S1368.78,751.27,1369.41,758.39Z"/><path class="cls-4" d="M1368.43,762.63c-2.91,5.35-11.93,9.78-22.89,10.75-12.14,1-22.64-2.48-25.42-8.2,2.91-5.35,11.93-9.78,22.92-10.77C1355.15,753.4,1365.63,756.94,1368.43,762.63Z"/></g><g id="Layer_5" data-name="Layer 5"><g id="l3ePo1"><path class="cls-6" d="M607.53,104.82c2.39,21.21,4.25,42.5,7.32,63.61,2.55,17.55-5.66,29.2-18.92,38.19-14.09,9.56-30,9.58-46.07,6.54-18.89-3.57-35.45-13-52.58-21-18.46-8.61-37.66-13.71-58.25-11.37-18.28,2.07-33.7,10-46.59,23-1.67,1.68-3.16,3.55-4.86,5.19-4.73,4.58-11.54,2.7-13.32-3.7a29.7,29.7,0,0,1-.78-4.66c-5.12-45.41-10.09-90.83-15.47-136.21-.82-6.9,1-11.89,5.82-16.48,26.42-25.41,57.55-33.83,93.28-26.3,18.77,4,35.36,13.15,52.49,21.13,13.08,6.09,26.65,10.71,41.4,10.61,15.69-.11,25.93-6.8,32.06-21.18A17.43,17.43,0,0,1,585.11,28c2.19-2.7,5.12-3.39,8.52-2.6,3.91.91,5.3,3.8,5.73,7.25,1,8,1.84,16,2.74,24Z"/></g><path class="cls-7" d="M351,593.09c-14-1.07-27.84-2.76-40.63-9.57-15.22-8.1-18-25.16-1.12-37.21,12.47-8.92,26.7-13.49,41.59-16.08,4.2-.73,5.3-2.28,4.9-6.54q-22.23-236.75-44.2-473.52c-.23-2.45-.64-4.38-3.12-5.82-3-1.74-4.44-4.84-4.78-8.33-.67-6.92-1.17-13.86-2-20.76-.67-5.48,2.65-9,5.54-12.86L332.69,0c6.52,2.78,9.2,7.8,9.35,14.79.13,5.83,1,11.65,1.54,17.47.31,3.15-.1,6.5-2.46,8.33-3.19,2.47-2.78,5.28-2.49,8.45q22,235.41,43.89,470.81c.62,6.69.63,6.66,7.53,6.76,14.31.21,28.33,1.94,41.58,7.89a37.17,37.17,0,0,1,10.16,6.82,18.39,18.39,0,0,1,2,24.2c-7.47,9.91-18.26,14.77-29.49,18.76a191.52,191.52,0,0,1-21,5.66C385,591.85,353.2,593.25,351,593.09Zm21.58-16.64c9.58-.92,17.92-2,26-4.28,9.85-2.76,19.73-5.69,28.12-12,5.81-4.37,5.82-7-.46-10.22-12.33-6.24-25.75-6.88-39.21-7.14-2.15,0-2.21,1.3-2.08,2.82.29,3.3.53,6.62.94,9.91.28,2.2-.47,3.13-2.73,3.31-6.93.55-13.85,1.18-20.76,1.94-2.4.26-3.49-.38-3.59-2.91-.13-3.15-.61-6.29-.81-9.44-.14-2.22-1-3.05-3.32-2.58-11.34,2.3-22.47,5.24-32.47,11.26-3.25,2-8.06,3.75-7.54,8.22s5.45,5.22,9.09,6.5C340,577.54,356.88,577.53,372.58,576.45Z"/><path class="cls-8" d="M510.13,79.31c-4.07-9.24-13.36-9.71-24.06-7.19L481.7,58.89l-8.06,2.66,4.25,12.89c-2.12.7-4.27,1.45-6.4,2.21l-4.29-13-8.05,2.66,4.37,13.22L447.29,85l2.85,8.6S456,91.48,456,91.63c3.26-1.08,5,.46,5.8,2l12,36.25a3,3,0,0,1-2.15,3.66c.13.06-5.86,1.93-5.86,1.93l1.58,10.16,16.26-5.32L488,153.7l8-2.66-4.37-13.24c2.23-.69,4.37-1.37,6.45-2.06l4.35,13.18,8.05-2.66-4.41-13.36c13.29-5.26,21.64-11.8,18.61-24.89C522.32,97.44,516,94.46,507.7,95.15c3.88-3.93,5.42-9.08,2.43-15.84m-1.81,32.34c3.3,10-14.19,14.52-19.65,16.33l-5.86-17.73c5.46-1.8,22.06-9,25.51,1.4m-12-23.78c3,9.1-11.63,12.76-16.18,14.27L474.8,86.06c4.55-1.5,18.36-7.67,21.5,1.82"/><path class="cls-9" d="M376,591.85c-6.15.57-22.8,1.4-25,1.23-14-1.07-27.84-2.76-40.63-9.57-15.22-8.1-18-25.16-1.12-37.21,12.47-8.92,26.7-13.49,41.59-16.08,4.2-.73,5.3-2.28,4.9-6.54q-22.23-236.75-44.2-473.52c-.23-2.45-.64-4.38-3.12-5.82-3-1.74-4.44-4.84-4.78-8.33-.67-6.92-1.17-13.86-2-20.76-.67-5.48,2.65-9,5.54-12.86L320,1.18m53,558.67c-3.4.32-7.22.56-10.62.94-2.4.26-3.49-.38-3.59-2.91-.13-3.15-.61-6.29-.81-9.44-.14-2.22-1-3.05-3.32-2.58-11.34,2.3-22.47,5.24-32.47,11.26-3.25,2-8.06,3.75-7.54,8.22s5.45,5.22,9.09,6.5c16.3,5.71,34.56,5.1,50.26,4"/></g></svg>